<?xml version="1.0" encoding="utf-8"?>
<!-- Generator: Adobe Illustrator 27.3.1, SVG Export Plug-In . SVG Version: 6.00 Build 0)  -->
<svg version="1.1" xmlns="http://www.w3.org/2000/svg" xmlns:xlink="http://www.w3.org/1999/xlink" x="0px" y="0px"
	 viewBox="0 0 773.5 208.7" style="enable-background:new 0 0 773.5 208.7;" xml:space="preserve">
<style type="text/css">
	.st0{fill:#EF533A;}
	.st1{fill:#29396D;}
	.st2{display:none;}
	.st3{display:inline;}
</style>
<g id="svg58" xmlns:inkscape="http://www.inkscape.org/namespaces/inkscape" xmlns:dc="http://purl.org/dc/elements/1.1/" xmlns:sodipodi="http://sodipodi.sourceforge.net/DTD/sodipodi-0.dtd" xmlns:rdf="http://www.w3.org/1999/02/22-rdf-syntax-ns#" xmlns:svg="http://www.w3.org/2000/svg" xmlns:cc="http://creativecommons.org/ns#" inkscape:version="0.92.3 (2405546, 2018-03-11)">
	
		<sodipodi:namedview  bordercolor="#666666" borderopacity="1" gridtolerance="10" guidetolerance="10" id="namedview60" inkscape:current-layer="svg58" inkscape:cx="175.23844" inkscape:cy="104.335" inkscape:pageopacity="0" inkscape:pageshadow="2" inkscape:window-height="1137" inkscape:window-maximized="1" inkscape:window-width="1920" inkscape:window-x="1912" inkscape:window-y="-8" inkscape:zoom="2.2760362" objecttolerance="10" pagecolor="#ffffff" showgrid="false">
		</sodipodi:namedview>
	<g id="Ebene_1">
	</g>
	<g id="content">
		<path id="path5" class="st0" d="M173.4,142.5l-62.8-36.3V33.7c0-1.6-1.3-2.9-2.8-2.9s-2.8,1.3-2.8,2.9v72.6l-62.8,36.3
			c-1.4,0.8-1.8,2.5-1,3.9c0.5,0.9,1.5,1.4,2.5,1.4c0.5,0,1-0.1,1.4-0.4l62.8-36.3l62.8,36.3c0.4,0.3,0.9,0.4,1.4,0.4
			c1,0,1.9-0.5,2.5-1.4C175.3,145,174.8,143.3,173.4,142.5z"/>
		<path id="path7" class="st1" d="M170.6,98c0.4,0.3,0.9,0.4,1.4,0.4c1,0,1.9-0.5,2.5-1.4c0.8-1.4,0.3-3.1-1-3.9l-20-11.6V58.4
			c0-1.6-1.3-2.8-2.9-2.8s-2.9,1.3-2.9,2.8v19.8L132,69.1V46c0-1.6-1.3-2.8-2.9-2.8c-1.6,0-2.8,1.3-2.8,2.8v19.8l-17.2-9.9
			c0,0-0.1,0-0.1,0c-0.1,0-0.2-0.1-0.3-0.1c-0.1,0-0.1-0.1-0.2-0.1c-0.1,0-0.2-0.1-0.3-0.1c-0.1,0-0.1,0-0.2,0c-0.1,0-0.2,0-0.4,0
			c-0.1,0-0.1,0-0.2,0c-0.1,0-0.3,0-0.4,0.1c-0.1,0-0.1,0-0.2,0c-0.1,0-0.2,0.1-0.3,0.1c-0.1,0-0.1,0-0.2,0.1c0,0-0.1,0-0.1,0
			l-17.2,9.9V46c0-1.6-1.3-2.8-2.8-2.8s-2.8,1.3-2.8,2.8v23.1l-15.7,9.1V58.4c0-1.6-1.3-2.8-2.8-2.8c-1.6,0-2.8,1.3-2.8,2.8v23.1
			L42.1,93c-1.4,0.8-1.8,2.5-1,3.9c0.5,0.9,1.5,1.4,2.5,1.4c0.5,0,1-0.1,1.4-0.4l17.2-9.9v18.2l-20,11.5c-1.4,0.8-1.8,2.5-1,3.9
			c0.5,0.9,1.5,1.4,2.5,1.4c0.5,0,1-0.1,1.4-0.4l17.1-9.9v19.8c0,1.2,0.7,2.2,1.8,2.6l16.8,9.7l-17.1,9.9c-1.4,0.8-1.8,2.5-1,3.9
			c0.5,0.9,1.5,1.4,2.5,1.4c0.5,0,1-0.1,1.4-0.4l20-11.5l15.7,9.1l-17.2,9.9c-1.4,0.8-1.8,2.5-1,3.9c0.5,0.9,1.5,1.4,2.5,1.4
			c0.5,0,1-0.1,1.4-0.4l20-11.6l20,11.6c0.4,0.3,0.9,0.4,1.4,0.4c1,0,1.9-0.5,2.5-1.4c0.8-1.4,0.3-3.1-1-3.9l-17.2-9.9l15.7-9.1
			l20,11.5c0.4,0.3,0.9,0.4,1.4,0.4c1,0,1.9-0.5,2.5-1.4c0.8-1.4,0.3-3.1-1-3.9l-17.1-9.9l17.1-9.9c0,0,0.1-0.1,0.1-0.1
			c0.1-0.1,0.1-0.1,0.2-0.1c0.1-0.1,0.2-0.1,0.2-0.2c0.1-0.1,0.1-0.1,0.2-0.2c0.1-0.1,0.1-0.2,0.2-0.2c0.1-0.1,0.1-0.1,0.1-0.2
			c0.1-0.1,0.1-0.2,0.1-0.3c0-0.1,0.1-0.1,0.1-0.2c0-0.1,0.1-0.2,0.1-0.3c0-0.1,0-0.2,0-0.2c0-0.1,0-0.2,0-0.3c0,0,0-0.1,0-0.1
			v-19.8l17.1,9.9c0.4,0.3,0.9,0.4,1.4,0.4c1,0,1.9-0.5,2.5-1.4c0.8-1.4,0.3-3.1-1-3.9l-20-11.5V88L170.6,98z M107.8,61.7l18.6,10.7
			v18.2l-16.8-9.7c-0.4-0.3-0.9-0.5-1.4-0.6c0,0,0,0,0,0c-0.1,0-0.3,0-0.4,0c-0.1,0-0.1,0-0.2,0c-0.1,0-0.1,0-0.2,0
			c-0.1,0-0.3,0.1-0.4,0.1l0,0c-0.3,0.1-0.6,0.2-0.8,0.4l-16.9,9.7V72.4L107.8,61.7z M126.3,118.6l-18.6,10.7l-18.6-10.7V97.1
			l18.6-10.7l18.6,10.7V118.6z M67.8,84.8l15.7-9.1v18.2l-15.7,9.1V84.8z M67.8,130.9v-21.4l15.7-9.1v19.4c-0.1,0.5,0,1,0.2,1.4
			c0,0,0,0,0,0.1c0.1,0.1,0.1,0.2,0.2,0.3c0.1,0.1,0.1,0.2,0.1,0.2c0,0,0.1,0.1,0.1,0.1c0.3,0.4,0.7,0.7,1.1,0.9l16.9,9.7l-15.7,9.1
			L67.8,130.9z M107.8,154L92,144.9l15.7-9.1l15.7,9.1L107.8,154z M147.8,130.9l-18.6,10.7l-15.7-9.1l16.8-9.7
			c0.5-0.2,0.9-0.5,1.2-0.9c0,0,0,0,0,0c0.1-0.1,0.1-0.2,0.2-0.3c0-0.1,0.1-0.1,0.1-0.2s0.1-0.1,0.1-0.2c0.1-0.1,0.1-0.3,0.1-0.4
			c0,0,0,0,0,0c0.1-0.2,0.1-0.5,0.1-0.8v-19.6l15.7,9.1L147.8,130.9L147.8,130.9z M147.8,102.9L132,93.8V75.7l15.7,9.1V102.9z"/>
		<path id="path9" class="st1" d="M260.2,45.5h-14.6v41.3h14.6c6.5,0,11.5-1.8,15.1-5.3c3.6-3.6,5.4-8.7,5.4-15.3
			s-1.8-11.7-5.4-15.3C271.7,47.3,266.6,45.5,260.2,45.5z M270.2,77.2c-2.3,2.6-5.7,3.9-10,3.9h-7.9V51.2h7.9c4.4,0,7.7,1.3,10,3.9
			c2.3,2.6,3.5,6.3,3.5,11.1S272.5,74.6,270.2,77.2z"/>
		<path id="path11" class="st1" d="M293.5,50.2c1.4,0,2.5-0.4,3.3-1.1s1.2-1.8,1.2-3.1c0-1.3-0.4-2.4-1.2-3.1s-1.9-1.1-3.3-1.1
			c-1.5,0-2.6,0.4-3.4,1.1c-0.8,0.7-1.2,1.7-1.2,3.1s0.4,2.4,1.2,3.1C290.9,49.9,292,50.2,293.5,50.2z"/>
		<rect id="rect13" x="290.1" y="55.5" class="st1" width="6.7" height="31.3"/>
		<path id="path15" class="st1" d="M333.5,95.4c1.4-1.6,2.1-3.4,2.1-5.6c0-2.5-0.9-4.4-2.6-5.8c-1.8-1.4-4.2-2.1-7.4-2.1h-9.4
			c-1.4,0-2.5-0.2-3.3-0.8c-0.8-0.5-1.2-1.3-1.2-2.3c0-0.9,0.4-1.7,1.2-2.4c0.4-0.4,1.1-0.7,1.9-0.9c1.4,0.3,3,0.5,4.8,0.5
			c2.8,0,5.1-0.4,7.2-1.3c2-0.9,3.6-2.1,4.7-3.7c1.1-1.6,1.7-3.4,1.7-5.6s-0.6-4-1.7-5.6c-0.5-0.7-1-1.3-1.7-1.8
			c0.2-1.1,0.7-2,1.5-2.7c1-0.8,2.6-1.3,4.6-1.3c0.1,0,0.2,0,0.4,0c0.1,0,0.2,0,0.4,0l-1.1-5.3c-0.1,0-0.2,0-0.2,0s-0.2,0-0.2,0
			c-1.7,0-3.2,0.4-4.5,1.1c-1.3,0.8-2.3,1.8-3,3.1c-0.5,0.9-0.8,1.9-0.9,3c-2-0.8-4.3-1.2-6.9-1.2c-2.7,0-5,0.4-7,1.3
			c-2,0.9-3.6,2.1-4.7,3.7c-1.1,1.6-1.7,3.4-1.7,5.6c0,3.2,1.2,5.7,3.5,7.7c0.5,0.4,1,0.7,1.5,1c-1,0.4-1.9,0.9-2.6,1.5
			c-1.4,1.2-2.1,2.8-2.1,4.6s0.5,3.2,1.6,4.2c0.6,0.6,1.3,1,2.1,1.4c-1.6,0.3-2.8,0.9-3.6,1.8c-1.2,1.2-1.8,2.7-1.8,4.4
			c0,2.4,1.2,4.4,3.7,5.9c2.5,1.6,6.3,2.4,11.4,2.4c3,0,5.8-0.4,8.1-1.2C330.2,98.2,332.1,97,333.5,95.4z M314.7,61.2
			c1.3-1.1,2.9-1.6,4.8-1.6c2,0,3.6,0.5,4.9,1.6c1.3,1.1,1.9,2.5,1.9,4.3c0,1.8-0.6,3.2-1.9,4.3c-1.3,1.1-2.9,1.6-4.9,1.6
			c-1.9,0-3.5-0.5-4.8-1.6c-1.3-1.1-1.9-2.5-1.9-4.3C312.8,63.7,313.4,62.2,314.7,61.2z M319.8,95.3c-3,0-5.3-0.4-7-1.2
			s-2.5-1.9-2.5-3.2c0-1,0.4-1.9,1.2-2.5c0.8-0.6,1.8-0.9,2.9-0.9h10.1c2,0,3.4,0.3,4.2,0.9c0.8,0.6,1.2,1.4,1.2,2.3
			c0,0.8-0.4,1.6-1.1,2.3c-0.7,0.7-1.8,1.2-3.3,1.7C323.9,95,322,95.3,319.8,95.3z"/>
		<rect id="rect17" x="344.3" y="55.5" class="st1" width="6.7" height="31.3"/>
		<path id="path19" class="st1" d="M347.7,50.2c1.4,0,2.5-0.4,3.3-1.1s1.2-1.8,1.2-3.1c0-1.3-0.4-2.4-1.2-3.1s-1.9-1.1-3.3-1.1
			c-1.5,0-2.6,0.4-3.4,1.1c-0.8,0.7-1.2,1.7-1.2,3.1s0.4,2.4,1.2,3.1C345.1,49.9,346.2,50.2,347.7,50.2z"/>
		<path id="path21" class="st1" d="M377.6,81.3c-0.8,0.4-1.8,0.5-2.9,0.5c-1.4,0-2.5-0.3-3.3-1.1c-0.8-0.7-1.2-1.8-1.2-3.4V60.8H381
			v-5.3h-10.8v-9.2l-6.7,1.9v7.3h-6v5.3h6v17.8c0,2.1,0.5,3.8,1.3,5.2c0.8,1.3,2,2.3,3.5,2.8c1.5,0.6,3.1,0.9,5,0.9
			c1.7,0,3.3-0.2,4.7-0.7c1.4-0.5,2.6-1.1,3.5-2l-1.5-4.9C379.3,80.5,378.5,81,377.6,81.3z"/>
		<path id="path23" class="st1" d="M414.1,80V66c0-2.5-0.5-4.6-1.7-6.3s-2.6-2.8-4.5-3.7s-4.1-1.2-6.6-1.2c-3.7,0-6.7,0.8-9,2.3
			s-3.9,3.6-4.7,6.1l5.6,2.4c0.6-2,1.6-3.4,2.9-4.3c1.3-0.9,2.9-1.3,4.8-1.3c2,0,3.6,0.6,4.7,1.7c1.1,1.2,1.7,2.8,1.7,4.9v1.2
			l-11.1,2.2c-2.8,0.5-5,1.6-6.5,3.1c-1.5,1.5-2.3,3.4-2.3,5.8c0,1.9,0.4,3.4,1.3,4.7c0.9,1.3,2.1,2.2,3.7,2.8
			c1.6,0.6,3.3,0.9,5.3,0.9c1.6,0,3.1-0.3,4.7-0.8c1.5-0.5,2.9-1.3,4.1-2.4c0.5-0.4,0.9-0.9,1.2-1.4c0.1,0.6,0.4,1.1,0.6,1.6
			c0.6,1,1.4,1.7,2.5,2.2c1.1,0.5,2.3,0.7,3.6,0.7c1.5,0,2.7-0.2,3.6-0.7l0.4-4.6c-0.7,0.2-1.4,0.3-2.2,0.3
			C414.9,82.3,414.1,81.5,414.1,80z M407.5,75.2c0,1.2-0.2,2.3-0.7,3.2s-1.1,1.6-1.9,2.2c-0.8,0.6-1.7,1-2.7,1.2s-2,0.4-3,0.4
			c-1.5,0-2.7-0.3-3.6-1c-0.9-0.7-1.3-1.6-1.3-2.8c0-1.2,0.4-2.1,1.3-2.8c0.9-0.6,2.2-1.1,3.9-1.4l7.9-1.6L407.5,75.2L407.5,75.2z"
			/>
		<path id="path25" class="st1" d="M434.4,87.2c0.9-0.2,1.7-0.4,2.4-0.8l0.8-5c-0.8,0.3-1.5,0.5-2,0.6c-0.5,0.1-1.2,0.2-1.9,0.2
			c-1.2,0-2.1-0.3-2.7-0.9c-0.5-0.6-0.8-1.7-0.8-3.2V41.4h-6.7v37.2c0,3,0.7,5.2,2,6.7c1.3,1.4,3.4,2.2,6.2,2.2
			C432.6,87.4,433.5,87.3,434.4,87.2z"/>
		<polygon id="polygon27" class="st1" points="470.7,45.5 464,45.5 464,86.8 493.5,86.8 493.5,81.1 470.7,81.1 		"/>
		<path id="path29" class="st1" d="M521.6,56.8c-2.1-1.2-4.7-1.9-7.8-1.9c-3,0-5.6,0.7-8,1.9c-2.3,1.3-4.2,3.2-5.5,5.6s-2,5.4-2,8.7
			s0.7,6.3,2,8.7c1.3,2.4,3.2,4.3,5.5,5.6s5.1,1.9,8.3,1.9c2.1,0,4-0.3,5.8-0.9s3.3-1.4,4.5-2.5c1.3-1.1,2.3-2.4,3-3.9l-5.3-2.5
			c-0.8,1.4-1.8,2.5-3.1,3.3s-3,1.2-5.1,1.2c-1.9,0-3.5-0.4-4.9-1.2c-1.4-0.8-2.5-2.1-3.2-3.7c-0.5-1.2-0.9-2.5-1-4h22.9
			c0.1-0.5,0.1-1.1,0.2-1.8s0.1-1.4,0.1-2.1c0-2.8-0.6-5.2-1.7-7.4C525.3,59.7,523.7,58,521.6,56.8z M505.1,68
			c0.2-1.1,0.5-2,0.8-2.8c0.7-1.7,1.7-2.9,3.1-3.7c1.3-0.8,2.9-1.2,4.7-1.2c2.5,0,4.4,0.8,5.8,2.3c1.2,1.3,2,3.2,2.1,5.5L505.1,68
			L505.1,68z"/>
		<path id="path31" class="st1" d="M562,80V66c0-2.5-0.6-4.6-1.7-6.3s-2.6-2.8-4.5-3.7s-4.1-1.2-6.6-1.2c-3.7,0-6.7,0.8-9,2.3
			c-2.3,1.5-3.9,3.6-4.7,6.1l5.6,2.4c0.6-2,1.6-3.4,2.9-4.3c1.3-0.9,3-1.3,4.8-1.3c2,0,3.6,0.6,4.7,1.7c1.2,1.2,1.7,2.8,1.7,4.9v1.2
			l-11.1,2.2c-2.8,0.5-5,1.6-6.5,3.1c-1.5,1.5-2.3,3.4-2.3,5.8c0,1.9,0.5,3.4,1.3,4.7c0.9,1.3,2.1,2.2,3.7,2.8
			c1.6,0.6,3.3,0.9,5.3,0.9c1.6,0,3.2-0.3,4.7-0.8c1.5-0.5,2.9-1.3,4.1-2.4c0.5-0.4,0.8-0.9,1.2-1.4c0.2,0.6,0.4,1.1,0.7,1.6
			c0.6,1,1.4,1.7,2.5,2.2c1.1,0.5,2.3,0.7,3.6,0.7c1.5,0,2.7-0.2,3.6-0.7l0.4-4.6c-0.7,0.2-1.4,0.3-2.2,0.3
			C562.7,82.3,562,81.5,562,80z M555.3,75.2c0,1.2-0.2,2.3-0.7,3.2s-1.1,1.6-1.8,2.2c-0.8,0.6-1.7,1-2.7,1.2s-2,0.4-3,0.4
			c-1.5,0-2.7-0.3-3.6-1c-0.9-0.7-1.3-1.6-1.3-2.8c0-1.2,0.4-2.1,1.3-2.8s2.2-1.1,4-1.4l7.9-1.6L555.3,75.2L555.3,75.2z"/>
		<path id="path33" class="st1" d="M589.7,54.9c-2.4,0-4.5,0.5-6.1,1.6c-1.7,1.1-2.9,2.6-3.7,4.7l-0.6-5.6h-5.7v31.3h6.7V70.2
			c0-2.1,0.4-3.9,1.2-5.3c0.8-1.4,1.8-2.4,3.1-3.1s2.5-1,3.8-1c1,0,1.7,0,2.3,0.2c0.6,0.1,1.1,0.2,1.5,0.4l0.9-5.9
			c-0.4-0.2-0.9-0.4-1.6-0.5C590.9,54.9,590.3,54.9,589.7,54.9z"/>
		<path id="path35" class="st1" d="M620.9,56.2c-1.8-0.9-3.8-1.3-6-1.3c-1.7,0-3.3,0.3-4.8,0.8s-2.8,1.4-3.9,2.6
			c-0.7,0.8-1.3,1.7-1.8,2.7l-0.3-5.5h-6v31.3h6.7V70.2c0-2.4,0.4-4.3,1.3-5.7c0.9-1.4,1.9-2.5,3.2-3.1c1.3-0.6,2.6-1,4-1
			c1.9,0,3.5,0.6,4.8,1.8c1.3,1.2,1.9,3.3,1.9,6.4v18.2h6.7V66.5c0-2.6-0.5-4.8-1.6-6.5C624.1,58.3,622.7,57,620.9,56.2z"/>
		<rect id="rect37" x="636.5" y="55.5" class="st1" width="6.7" height="31.3"/>
		<path id="path39" class="st1" d="M639.8,41.9c-1.5,0-2.6,0.4-3.3,1.1c-0.8,0.7-1.2,1.7-1.2,3.1s0.4,2.4,1.2,3.1
			c0.8,0.7,1.9,1.1,3.3,1.1c1.4,0,2.5-0.4,3.3-1.1s1.2-1.8,1.2-3.1c0-1.3-0.4-2.4-1.2-3.1C642.3,42.3,641.2,41.9,639.8,41.9z"/>
		<path id="path41" class="st1" d="M677,56.2c-1.8-0.9-3.8-1.3-6-1.3c-1.7,0-3.3,0.3-4.8,0.8c-1.5,0.5-2.8,1.4-3.9,2.6
			c-0.7,0.8-1.3,1.7-1.8,2.7l-0.3-5.5h-6v31.3h6.7V70.2c0-2.4,0.4-4.3,1.3-5.7c0.9-1.4,1.9-2.5,3.2-3.1c1.3-0.6,2.6-1,4-1
			c1.9,0,3.5,0.6,4.8,1.8c1.3,1.2,1.9,3.3,1.9,6.4v18.2h6.7V66.5c0-2.6-0.5-4.8-1.6-6.5C680.2,58.3,678.8,57,677,56.2z"/>
		<path id="path43" class="st1" d="M721.2,48.9c-0.1,0-0.2,0-0.2,0s-0.2,0-0.2,0c-1.7,0-3.2,0.4-4.5,1.1c-1.3,0.8-2.3,1.8-3,3.1
			c-0.5,0.9-0.8,1.9-1,3c-2-0.8-4.3-1.2-6.9-1.2c-2.7,0-5,0.4-7,1.3c-2,0.9-3.6,2.1-4.7,3.7c-1.1,1.6-1.7,3.4-1.7,5.6
			c0,3.2,1.2,5.7,3.5,7.7c0.5,0.4,1,0.7,1.5,1c-1,0.4-1.9,0.9-2.6,1.5c-1.4,1.2-2.1,2.8-2.1,4.6s0.5,3.2,1.6,4.2
			c0.6,0.6,1.3,1,2.2,1.4c-1.6,0.3-2.8,0.9-3.6,1.8c-1.2,1.2-1.8,2.7-1.8,4.4c0,2.4,1.2,4.4,3.7,5.9s6.3,2.4,11.4,2.4
			c3,0,5.8-0.4,8.1-1.2c2.4-0.8,4.2-2,5.6-3.6s2.1-3.4,2.1-5.6c0-2.5-0.9-4.4-2.6-5.8c-1.8-1.4-4.2-2.1-7.4-2.1h-9.4
			c-1.4,0-2.5-0.2-3.3-0.8s-1.2-1.3-1.2-2.3c0-0.9,0.4-1.7,1.2-2.4c0.4-0.4,1.1-0.7,1.9-0.9c1.4,0.3,3,0.5,4.8,0.5
			c2.8,0,5.2-0.4,7.2-1.3c2-0.9,3.6-2.1,4.7-3.7c1.1-1.6,1.7-3.4,1.7-5.6s-0.5-4-1.7-5.6c-0.5-0.7-1-1.3-1.7-1.8
			c0.2-1.1,0.7-2,1.5-2.7c1-0.8,2.6-1.3,4.6-1.3c0.1,0,0.2,0,0.4,0c0.1,0,0.2,0,0.4,0L721.2,48.9z M700.2,87.4h10.1
			c2,0,3.4,0.3,4.2,0.9c0.8,0.6,1.2,1.4,1.2,2.3c0,0.8-0.4,1.6-1.1,2.3c-0.7,0.7-1.8,1.2-3.3,1.7s-3.4,0.7-5.7,0.7
			c-3,0-5.3-0.4-7-1.2s-2.5-1.9-2.5-3.2c0-1,0.4-1.9,1.2-2.5C698,87.7,699,87.4,700.2,87.4z M710.1,69.8c-1.3,1.1-2.9,1.6-4.8,1.6
			c-1.9,0-3.5-0.5-4.8-1.6c-1.3-1.1-1.9-2.5-1.9-4.3c0-1.8,0.6-3.2,1.9-4.3c1.3-1.1,2.9-1.6,4.8-1.6c2,0,3.6,0.5,4.8,1.6
			c1.3,1.1,1.9,2.5,1.9,4.3C712,67.3,711.4,68.7,710.1,69.8z"/>
		<path id="path45" class="st1" d="M269.5,152.1c-1.9,1.3-4.1,2-6.6,2c-2.6,0-4.9-0.6-6.8-1.8c-1.9-1.2-3.3-3-4.3-5.3
			c-1-2.3-1.5-5.1-1.5-8.4c0-3.3,0.5-6.1,1.6-8.4s2.6-4.1,4.5-5.3s4.1-1.8,6.7-1.8s4.6,0.6,6.2,1.7c1.6,1.2,2.8,2.9,3.6,5.4l6.3-2.8
			c-0.8-2.2-2-4.1-3.6-5.6c-1.5-1.5-3.4-2.6-5.6-3.4c-2.2-0.8-4.6-1.1-7.4-1.1c-3.9,0-7.4,0.9-10.3,2.6s-5.2,4.2-6.8,7.3
			c-1.6,3.2-2.4,7-2.4,11.4s0.8,8.2,2.4,11.4c1.6,3.2,3.8,5.6,6.8,7.3c2.9,1.7,6.4,2.6,10.3,2.6c2.7,0,5.2-0.4,7.5-1.3
			c2.2-0.9,4.2-2.2,5.9-3.9c1.7-1.7,2.9-3.9,3.8-6.4l-6.4-2.1C272.6,148.8,271.3,150.8,269.5,152.1z"/>
		<path id="path47" class="st1" d="M312.8,152.5v-14c0-2.6-0.5-4.6-1.7-6.3c-1.1-1.6-2.6-2.9-4.5-3.7s-4.1-1.2-6.6-1.2
			c-3.7,0-6.7,0.8-9,2.3c-2.3,1.6-3.9,3.6-4.7,6.1l5.6,2.4c0.6-2,1.6-3.4,2.9-4.3c1.3-0.9,2.9-1.3,4.8-1.3c2,0,3.6,0.6,4.7,1.7
			c1.1,1.1,1.7,2.8,1.7,4.9v1.2l-11.1,2.2c-2.8,0.5-5,1.6-6.5,3.1c-1.5,1.5-2.3,3.4-2.3,5.8c0,1.9,0.4,3.4,1.3,4.7
			c0.9,1.3,2.1,2.2,3.7,2.9c1.6,0.6,3.3,0.9,5.3,0.9c1.6,0,3.1-0.3,4.7-0.8c1.5-0.5,2.9-1.3,4.1-2.4c0.5-0.4,0.9-0.9,1.2-1.4
			c0.1,0.6,0.4,1.1,0.6,1.6c0.6,1,1.4,1.7,2.5,2.2c1.1,0.5,2.3,0.7,3.6,0.7c1.5,0,2.7-0.2,3.6-0.7l0.4-4.6c-0.7,0.2-1.4,0.3-2.2,0.3
			C313.6,154.8,312.8,154,312.8,152.5z M306.2,147.7c0,1.2-0.2,2.3-0.7,3.2s-1.1,1.6-1.9,2.2s-1.7,1-2.7,1.2s-2,0.4-3,0.4
			c-1.5,0-2.7-0.3-3.6-1c-0.9-0.7-1.3-1.6-1.3-2.8c0-1.2,0.4-2.1,1.3-2.8c0.9-0.6,2.2-1.1,3.9-1.4l7.9-1.6L306.2,147.7L306.2,147.7z
			"/>
		<path id="path49" class="st1" d="M367.8,128.6c-1.8-0.8-3.6-1.2-5.6-1.2c-1.4,0-2.8,0.2-4.2,0.7s-2.7,1.1-3.9,2
			c-1.2,0.9-2.1,2.1-2.8,3.4c-1-2-2.4-3.6-4.3-4.6c-1.9-1-4-1.5-6.2-1.5c-2,0-4,0.5-5.8,1.4c-1.8,1-3.3,2.4-4.4,4.4l-0.3-5.3h-6
			v31.3h6.7v-16.6c0-2.3,0.4-4.2,1.2-5.6s1.9-2.5,3.1-3.1c1.3-0.7,2.5-1,3.8-1c1.9,0,3.4,0.6,4.6,1.7c1.2,1.1,1.8,3,1.8,5.5v19.2
			h6.7v-17c0-2,0.4-3.8,1.1-5.2c0.8-1.4,1.8-2.4,3-3.2c1.2-0.7,2.6-1.1,4-1.1c1.9,0,3.4,0.6,4.6,1.7c1.2,1.1,1.8,3,1.8,5.5v19.2h6.7
			V139c0-2.7-0.5-4.9-1.6-6.6C370.9,130.7,369.5,129.5,367.8,128.6z"/>
		<path id="path51" class="st1" d="M408.3,129.3c-2.1-1.3-4.4-1.9-7-1.9c-1.9,0-3.6,0.3-5.2,1.1c-1.6,0.7-2.9,1.7-3.9,2.9
			c-0.6,0.8-1.2,1.6-1.6,2.5l-0.3-5.9h-6v44.4h6.7v-18.3c0.8,1.4,1.9,2.7,3.3,3.7c1.9,1.4,4.1,2.1,6.8,2.1c2.6,0,4.9-0.6,7-1.9
			c2.1-1.3,3.8-3.2,5-5.6c1.2-2.4,1.9-5.4,1.9-8.8c0-3.4-0.6-6.3-1.8-8.7S410.4,130.6,408.3,129.3z M406.1,151.6
			c-1.5,1.9-3.6,2.9-6.4,2.9c-1.8,0-3.3-0.4-4.6-1.3c-1.3-0.9-2.3-2.1-3-3.8c-0.7-1.6-1.1-3.6-1.1-5.8c0-2.2,0.4-4.2,1.1-5.8
			c0.7-1.6,1.8-2.9,3.1-3.8c1.3-0.9,2.9-1.4,4.6-1.4c2.7,0,4.8,1,6.3,2.9c1.5,1.9,2.3,4.6,2.3,8S407.6,149.7,406.1,151.6z"/>
		<path id="path53" class="st1" d="M445.8,145c0,1.6-0.2,3.1-0.7,4.3c-0.4,1.2-1.1,2.2-1.9,3s-1.7,1.3-2.7,1.7c-1,0.4-2,0.5-3,0.5
			c-2.2,0-3.9-0.5-5.1-1.6c-1.2-1.1-1.8-3-1.8-5.9v-19H424v20.7c0,2.7,0.5,4.8,1.6,6.5s2.4,2.9,4.2,3.6s3.6,1.1,5.7,1.1
			c2.5,0,4.7-0.5,6.5-1.4c1.8-0.9,3.3-2.4,4.4-4.3l0.3,5.1h5.9V128h-6.7V145z"/>
		<path id="path55" class="st1" d="M480.4,141.8l-7.1-1.5c-1.6-0.3-2.8-0.8-3.4-1.4c-0.6-0.6-0.9-1.4-0.9-2.2c0-0.8,0.2-1.5,0.8-2.1
			c0.5-0.6,1.2-1,2.2-1.4c1-0.3,2.1-0.5,3.5-0.5c1.7,0,3.3,0.4,4.8,1.2c1.5,0.8,2.7,2.1,3.5,3.7l4.6-3.9c-1.2-2.1-2.9-3.6-5.1-4.7
			c-2.2-1.1-4.9-1.7-8-1.7c-2.7,0-5,0.4-7,1.3c-1.9,0.9-3.4,2.1-4.4,3.5c-1,1.5-1.5,3.1-1.5,4.8c0,2.3,0.7,4.2,2.1,5.7
			c1.4,1.5,3.8,2.6,7.1,3.2l6.6,1.4c1.5,0.3,2.5,0.8,3,1.4c0.5,0.6,0.8,1.3,0.8,2.1c0,1.2-0.6,2.1-1.7,2.8c-1.1,0.7-2.6,1-4.6,1
			c-2.4,0-4.5-0.5-6.2-1.5s-3.1-2.4-4-4.1l-4.6,4c1.5,2.2,3.5,3.9,6.1,5.1c2.6,1.2,5.5,1.8,8.6,1.8c2.7,0,5-0.4,7-1.2
			c2-0.8,3.5-2,4.5-3.5s1.6-3.3,1.6-5.3s-0.6-3.7-1.9-5.1C485.5,143.3,483.4,142.4,480.4,141.8z"/>
	</g>
</g>
<g id="Ebene_2" class="st2">
	<g class="st3">
		<g>
			<path class="st0" d="M639,135.8c1.5,0,2.9,0.4,4.1,1.1c1.2,0.7,2.2,1.8,2.8,3.2c0.7,1.4,1,3.2,1,5.2c0,1.9-0.3,3.7-0.8,5.4
				c-0.6,1.7-1.3,3.2-2.3,4.6s-2.2,2.4-3.5,3.2s-2.9,1.2-4.6,1.2c-1.2,0-2.4-0.2-3.4-0.6c-1-0.4-1.9-1-2.6-1.8
				c-0.7-0.8-1.2-1.8-1.4-2.9l-1.2,4.9H621l7.6-33.1h6.3l-3.2,13.8c0.7-1.2,1.7-2.2,3-3C636.1,136.2,637.5,135.8,639,135.8z
				 M634.4,154.9c0.9,0,1.8-0.3,2.6-0.8s1.5-1.2,2-2s1-1.8,1.3-2.9c0.3-1.1,0.5-2.2,0.5-3.3c0-1.2-0.2-2.2-0.6-3
				c-0.4-0.8-0.9-1.4-1.6-1.7c-0.7-0.4-1.5-0.6-2.3-0.6c-1,0-1.9,0.2-2.7,0.7c-0.8,0.5-1.5,1.2-2,2c-0.6,0.9-1,1.8-1.3,2.9
				c-0.3,1.1-0.4,2.3-0.4,3.5c0,1.5,0.4,2.8,1.2,3.7C631.8,154.4,632.9,154.9,634.4,154.9z"/>
			<path class="st0" d="M661.7,159.7c-2.2,0-4.1-0.4-5.8-1.3c-1.6-0.9-2.9-2.1-3.8-3.7c-0.9-1.6-1.4-3.4-1.4-5.4
				c0-2.5,0.5-4.8,1.5-6.8s2.5-3.6,4.4-4.8c1.9-1.2,4.2-1.8,6.9-1.8c2.1,0,3.9,0.4,5.4,1.2c1.5,0.8,2.6,2,3.4,3.5
				c0.8,1.5,1.2,3.4,1.2,5.5c0,0.6,0,1.2-0.1,1.9c-0.1,0.6-0.2,1.2-0.4,1.9h-18.4v-4.4h14.5l-2,1.3c0.1-0.4,0.2-0.8,0.2-1.1
				c0-0.3,0-0.6,0-0.9c0-0.9-0.2-1.7-0.5-2.3c-0.3-0.6-0.8-1.1-1.4-1.4c-0.6-0.3-1.3-0.5-2.2-0.5c-1.3,0-2.3,0.3-3.2,0.8
				c-0.8,0.6-1.5,1.3-2,2.2c-0.5,0.9-0.9,1.9-1.1,3c-0.2,1.1-0.3,2.1-0.3,3.2c0,1.1,0.2,2.1,0.7,2.9c0.4,0.8,1.1,1.4,1.9,1.9
				c0.8,0.4,1.7,0.7,2.8,0.7c1.3,0,2.3-0.3,3.1-0.9c0.8-0.6,1.4-1.3,1.9-2.1l5.2,2.3c-0.6,1.1-1.4,2-2.4,2.8c-1,0.8-2.2,1.4-3.6,1.8
				C664.8,159.5,663.3,159.7,661.7,159.7z"/>
			<path class="st0" d="M677.7,140.9l1.1-4.7h17.3l-1.1,4.7H677.7z M686.8,159.7c-1.7,0-3.2-0.3-4.4-1c-1.2-0.6-2.1-1.6-2.6-2.8
				c-0.5-1.2-0.5-2.7-0.1-4.6l4.6-20.1l6.8-1.8l-5.1,21.8c-0.3,1.3-0.1,2.2,0.5,2.8s1.5,0.9,2.6,0.9c0.7,0,1.3-0.1,1.8-0.2
				c0.5-0.2,0.9-0.4,1.3-0.6l0,4.3c-0.8,0.4-1.6,0.7-2.6,0.9C688.8,159.6,687.8,159.7,686.8,159.7z"/>
			<path class="st0" d="M705.1,159.7c-1.6,0-3.1-0.4-4.3-1.2s-2.2-1.9-3-3.3c-0.7-1.4-1.1-3.1-1.1-5.1c0-1.9,0.3-3.7,0.8-5.4
				c0.6-1.7,1.3-3.2,2.3-4.6c1-1.3,2.2-2.4,3.6-3.2s3-1.2,4.7-1.2c1.1,0,2.2,0.2,3.2,0.6c1,0.4,1.8,1,2.5,1.8c0.7,0.8,1.2,1.8,1.4,3
				l1.2-5h6.3l-5.3,23h-5.7l0.8-4.3c-0.7,1.4-1.8,2.6-3.1,3.5C708.1,159.2,706.7,159.7,705.1,159.7z M707.6,154.9
				c0.9,0,1.7-0.3,2.4-0.8s1.4-1.2,2-2.1s1-1.9,1.3-2.9c0.3-1.1,0.5-2.2,0.5-3.4c0-1-0.2-1.9-0.6-2.7c-0.4-0.8-0.9-1.4-1.5-1.8
				c-0.7-0.4-1.4-0.6-2.3-0.6c-1,0-1.9,0.3-2.7,0.8c-0.8,0.5-1.5,1.2-2,2c-0.6,0.9-1,1.8-1.3,2.9c-0.3,1.1-0.5,2.1-0.5,3.2
				c0,1.1,0.2,2.1,0.5,2.9c0.4,0.8,0.9,1.4,1.6,1.8C705.7,154.7,706.6,154.9,707.6,154.9z"/>
		</g>
	</g>
</g>
<g id="Ebene_3">
	<g>
		<g>
			<path class="st0" d="M563.5,159c-1.6,0-3-0.3-4.4-0.8c-1.3-0.6-2.5-1.3-3.5-2.4s-1.7-2.1-2.2-3.4l0.6-0.8l-0.4,6.8h-3.9v-40.9
				h4.5v19.2l-0.6-0.8c0.7-1.8,2-3.2,3.8-4.3c1.8-1.1,3.8-1.7,6.1-1.7c2.3,0,4.4,0.6,6.4,1.7c1.9,1.2,3.5,2.8,4.6,5s1.7,4.8,1.7,7.8
				c0,3-0.6,5.6-1.8,7.8c-1.2,2.2-2.7,3.9-4.7,5S565.8,159,563.5,159z M563,155.1c2.8,0,4.9-1,6.5-2.9c1.5-1.9,2.3-4.5,2.3-7.7
				c0-3.2-0.8-5.8-2.3-7.7s-3.7-2.9-6.4-2.9c-1.8,0-3.3,0.4-4.6,1.3c-1.3,0.9-2.4,2.1-3.1,3.8c-0.7,1.6-1.1,3.5-1.1,5.7
				c0,2.1,0.4,4,1.1,5.6c0.7,1.6,1.8,2.8,3.1,3.7C559.7,154.7,561.3,155.1,563,155.1z"/>
			<path class="st0" d="M596.6,159c-2.7,0-5-0.6-7.1-1.7s-3.7-2.8-4.8-5c-1.2-2.2-1.7-4.8-1.7-7.8s0.6-5.6,1.7-7.8
				c1.2-2.2,2.7-3.9,4.8-5c2-1.2,4.3-1.7,6.9-1.7c2.6,0,4.8,0.6,6.7,1.7c1.8,1.1,3.3,2.6,4.2,4.6c1,1.9,1.5,4.1,1.5,6.5
				c0,0.6,0,1.2-0.1,1.7c0,0.5-0.1,1-0.2,1.4h-22.6v-4h20.7l-2.3,0.4c0-2.7-0.7-4.8-2.2-6.2c-1.5-1.5-3.4-2.2-5.8-2.2
				c-1.8,0-3.4,0.4-4.7,1.3c-1.3,0.8-2.4,2.1-3.1,3.6c-0.7,1.6-1.1,3.5-1.1,5.7c0,2.2,0.4,4.1,1.1,5.7c0.7,1.6,1.8,2.8,3.2,3.7
				c1.4,0.8,3,1.3,4.9,1.3c2.1,0,3.7-0.4,5-1.2c1.3-0.8,2.3-1.8,3.1-3.2l3.5,2.1c-0.7,1.3-1.6,2.4-2.7,3.3c-1.1,0.9-2.4,1.7-3.9,2.2
				C600.1,158.8,598.4,159,596.6,159z"/>
			<path class="st0" d="M634,130.5v3.9h-20.3v-3.9H634z M623.8,122.5v28.2c0,1.4,0.4,2.4,1.2,3.1c0.8,0.7,1.8,1,3,1
				c1.1,0,2-0.2,2.8-0.6c0.8-0.4,1.5-0.9,2.1-1.5l1.6,3.8c-0.9,0.8-1.9,1.4-3.1,1.8c-1.2,0.4-2.5,0.7-4.1,0.7c-1.4,0-2.7-0.3-4-0.8
				c-1.2-0.5-2.2-1.3-2.9-2.4c-0.7-1.1-1.1-2.5-1.1-4.3v-27.8L623.8,122.5z"/>
			<path class="st0" d="M657,140.4c0-2.1-0.6-3.7-1.7-4.8s-2.7-1.7-4.8-1.7c-1.9,0-3.6,0.4-4.9,1.3c-1.3,0.8-2.3,2.2-3,4.1l-3.6-2.2
				c0.7-2.1,2.1-3.8,4.1-5.1c2-1.3,4.5-1.9,7.5-1.9c2,0,3.8,0.3,5.5,1c1.6,0.7,2.9,1.7,3.9,3.1c1,1.4,1.4,3.2,1.4,5.4V153
				c0,1.3,0.7,2,2.1,2c0.7,0,1.4-0.1,2.1-0.3l-0.2,3.5c-0.7,0.4-1.7,0.6-2.9,0.6c-1.1,0-2.1-0.2-2.9-0.6c-0.9-0.4-1.5-1-2-1.9
				c-0.5-0.8-0.7-1.9-0.7-3.2v-0.6l1.1,0.2c-0.4,1.5-1.2,2.6-2.3,3.6c-1.1,0.9-2.3,1.6-3.6,2s-2.7,0.6-4,0.6c-1.6,0-3.2-0.3-4.6-0.8
				c-1.4-0.6-2.5-1.4-3.4-2.5c-0.8-1.1-1.3-2.5-1.3-4.2c0-2.1,0.7-3.8,2.1-5.2c1.4-1.4,3.4-2.3,5.9-2.8l11.1-2.2v3.7l-9,1.8
				c-1.8,0.4-3.2,0.9-4.1,1.6c-0.9,0.7-1.3,1.6-1.3,2.8c0,1.2,0.5,2.1,1.4,2.8c0.9,0.7,2.2,1.1,3.9,1.1c1.1,0,2.1-0.1,3.1-0.4
				c1-0.3,1.9-0.7,2.7-1.3c0.8-0.6,1.4-1.3,1.8-2.2c0.4-0.9,0.7-1.9,0.7-3.1V140.4z"/>
		</g>
	</g>
</g>
</svg>
